<svg xmlns="http://www.w3.org/2000/svg" xmlns:xlink="http://www.w3.org/1999/xlink" width="4800" zoomAndPan="magnify" viewBox="0 0 3600 3599.999971" height="4800" preserveAspectRatio="xMidYMid meet" version="1.0"><defs><clipPath id="85596a6f4a"><path d="M 440.625 440.625 L 3159.375 440.625 L 3159.375 3159.375 L 440.625 3159.375 Z M 440.625 440.625 " clip-rule="nonzero"/></clipPath><clipPath id="e441f57e0a"><path d="M 1800 440.625 C 1049.238281 440.625 440.625 1049.238281 440.625 1800 C 440.625 2550.761719 1049.238281 3159.375 1800 3159.375 C 2550.761719 3159.375 3159.375 2550.761719 3159.375 1800 C 3159.375 1049.238281 2550.761719 440.625 1800 440.625 Z M 1800 440.625 " clip-rule="nonzero"/></clipPath><clipPath id="1123cf85d4"><path d="M 886.304688 811.875 L 2862.554688 811.875 L 2862.554688 2788.125 L 886.304688 2788.125 Z M 886.304688 811.875 " clip-rule="nonzero"/></clipPath><clipPath id="f98f012ef0"><path d="M 1874.429688 811.875 C 1328.703125 811.875 886.304688 1254.273438 886.304688 1800 C 886.304688 2345.726562 1328.703125 2788.125 1874.429688 2788.125 C 2420.15625 2788.125 2862.554688 2345.726562 2862.554688 1800 C 2862.554688 1254.273438 2420.15625 811.875 1874.429688 811.875 Z M 1874.429688 811.875 " clip-rule="nonzero"/></clipPath><clipPath id="46736b0929"><path d="M 1093.136719 1018.707031 L 2655.722656 1018.707031 L 2655.722656 2581.292969 L 1093.136719 2581.292969 Z M 1093.136719 1018.707031 " clip-rule="nonzero"/></clipPath><clipPath id="5f5ff4c267"><path d="M 1874.429688 1018.707031 C 1442.933594 1018.707031 1093.136719 1368.503906 1093.136719 1800 C 1093.136719 2231.496094 1442.933594 2581.292969 1874.429688 2581.292969 C 2305.925781 2581.292969 2655.722656 2231.496094 2655.722656 1800 C 2655.722656 1368.503906 2305.925781 1018.707031 1874.429688 1018.707031 Z M 1874.429688 1018.707031 " clip-rule="nonzero"/></clipPath><clipPath id="dd251a0866"><path d="M 960 929 L 2789 929 L 2789 1801 L 960 1801 Z M 960 929 " clip-rule="nonzero"/></clipPath><clipPath id="e970d1a667"><path d="M 2703.976562 929.84375 L 2788.117188 1158.105469 L 1044.054688 1800.984375 L 959.914062 1572.722656 Z M 2703.976562 929.84375 " clip-rule="nonzero"/></clipPath><clipPath id="d6315ba28b"><path d="M 2703.976562 929.84375 L 2788.117188 1158.105469 L 1044.863281 1800.683594 L 960.722656 1572.421875 Z M 2703.976562 929.84375 " clip-rule="nonzero"/></clipPath><clipPath id="90dfbe36ba"><path d="M 960 1800 L 2789 1800 L 2789 2671 L 960 2671 Z M 960 1800 " clip-rule="nonzero"/></clipPath><clipPath id="fd38f7045c"><path d="M 960.730469 2029.007812 L 1044.699219 1800.679688 L 2788.359375 2441.910156 L 2704.390625 2670.238281 Z M 960.730469 2029.007812 " clip-rule="nonzero"/></clipPath><clipPath id="626cb583b4"><path d="M 960.730469 2029.007812 L 1044.699219 1800.679688 L 2788.125 2441.824219 L 2704.160156 2670.152344 Z M 960.730469 2029.007812 " clip-rule="nonzero"/></clipPath><clipPath id="7d08e06188"><path d="M 2242.554688 1260 L 2862.554688 1260 L 2862.554688 2340 L 2242.554688 2340 Z M 2242.554688 1260 " clip-rule="nonzero"/></clipPath><clipPath id="333646f20c"><path d="M 2552.554688 1260 C 2381.34375 1260 2242.554688 1501.765625 2242.554688 1800 C 2242.554688 2098.234375 2381.34375 2340 2552.554688 2340 C 2723.761719 2340 2862.554688 2098.234375 2862.554688 1800 C 2862.554688 1501.765625 2723.761719 1260 2552.554688 1260 Z M 2552.554688 1260 " clip-rule="nonzero"/></clipPath><clipPath id="7dc0d0b07e"><path d="M 886.304688 811.875 L 1129.578125 811.875 L 1129.578125 2788.125 L 886.304688 2788.125 Z M 886.304688 811.875 " clip-rule="nonzero"/></clipPath></defs><rect x="-360" width="4320" fill="#ffffff" y="-359.999997" height="4319.999965" fill-opacity="1"/><rect x="-360" width="4320" fill="#a6a6a6" y="-359.999997" height="4319.999965" fill-opacity="1"/><g clip-path="url(#85596a6f4a)"><g clip-path="url(#e441f57e0a)"><path fill="#ffffff" d="M 440.625 440.625 L 3159.375 440.625 L 3159.375 3159.375 L 440.625 3159.375 Z M 440.625 440.625 " fill-opacity="1" fill-rule="nonzero"/></g></g><g clip-path="url(#1123cf85d4)"><g clip-path="url(#f98f012ef0)"><path fill="#a6a6a6" d="M 886.304688 811.875 L 2862.554688 811.875 L 2862.554688 2788.125 L 886.304688 2788.125 Z M 886.304688 811.875 " fill-opacity="1" fill-rule="nonzero"/></g></g><g clip-path="url(#46736b0929)"><g clip-path="url(#5f5ff4c267)"><path fill="#ffffff" d="M 1093.136719 1018.707031 L 2655.722656 1018.707031 L 2655.722656 2581.292969 L 1093.136719 2581.292969 Z M 1093.136719 1018.707031 " fill-opacity="1" fill-rule="nonzero"/></g></g><g clip-path="url(#dd251a0866)"><g clip-path="url(#e970d1a667)"><g clip-path="url(#d6315ba28b)"><path fill="#a6a6a6" d="M 2703.976562 929.84375 L 2788.117188 1158.105469 L 1044.945312 1800.65625 L 960.804688 1572.394531 Z M 2703.976562 929.84375 " fill-opacity="1" fill-rule="nonzero"/></g></g></g><g clip-path="url(#90dfbe36ba)"><g clip-path="url(#fd38f7045c)"><g clip-path="url(#626cb583b4)"><path fill="#a6a6a6" d="M 960.730469 2029.007812 L 1044.699219 1800.679688 L 2788.359375 2441.910156 L 2704.390625 2670.238281 Z M 960.730469 2029.007812 " fill-opacity="1" fill-rule="nonzero"/></g></g></g><g clip-path="url(#7d08e06188)"><g clip-path="url(#333646f20c)"><path fill="#a6a6a6" d="M 2242.554688 1260 L 2862.554688 1260 L 2862.554688 2340.15625 L 2242.554688 2340.15625 Z M 2242.554688 1260 " fill-opacity="1" fill-rule="nonzero"/></g></g><g clip-path="url(#7dc0d0b07e)"><path fill="#a6a6a6" d="M 886.304688 811.875 L 1129.578125 811.875 L 1129.578125 2788.488281 L 886.304688 2788.488281 Z M 886.304688 811.875 " fill-opacity="1" fill-rule="nonzero"/></g></svg>